# xmcd
#
# Track frame offsets: 
#        150
#        18175
#        35087
#        53150
#        69115
#        87750
#        110425
#        123725
#        129220
#        154925
#
# Disc length: 2440 seconds
#
# Revision: 1
# Processed by: cddbd v1.5.1PL0 Copyright (c) Steve Scherf et al.
# Submitted via: ExactAudioCopy v0.95a5
#
DISCID=7a09860a
DTITLE=Stars - Land Of Fortune
DYEAR=1979
DGENRE=Classic Rock
TTITLE0=Land Of Fortune
TTITLE1=Red Neck Boogie
TTITLE2=Gold Fever
TTITLE3=Last Of The River Boats
TTITLE4=Innocent Bystanders
TTITLE5=Wasted Words
TTITLE6=In And Out Of Love
TTITLE7=All Good Things Will Come To You In Time
TTITLE8=I'm Ready
TTITLE9=Never Coming Back
EXTD=ID3G: 2
EXTT0=
EXTT1=
EXTT2=
EXTT3=
EXTT4=
EXTT5=
EXTT6=
EXTT7=
EXTT8=
EXTT9=
PLAYORDER=
